<svg width="462" height="442" viewBox="0 0 462 442" fill="none" xmlns="http://www.w3.org/2000/svg">
<path d="M231 0C103.372 0 0 101.466 0 226.608C0 326.748 66.1815 411.669 157.946 441.609C169.496 443.742 173.731 436.728 173.731 430.713C173.731 425.332 173.539 411.073 173.443 392.183C109.186 405.846 95.634 361.781 95.634 361.781C85.1235 335.627 69.9352 328.632 69.9352 328.632C49.0105 314.584 71.5523 314.872 71.5523 314.872C94.7485 316.448 106.934 338.221 106.934 338.221C127.531 372.869 161.007 362.857 174.213 357.073C176.292 342.41 182.24 332.437 188.843 326.768C137.541 321.099 83.622 301.612 83.622 214.79C83.622 190.057 92.5732 169.841 107.396 153.987C104.797 148.26 97.0007 125.219 109.417 94.0101C109.417 94.0101 128.763 87.9375 172.942 117.244C191.422 112.209 211.057 109.71 230.692 109.595C250.327 109.71 269.962 112.209 288.442 117.244C332.332 87.9375 351.678 94.0101 351.678 94.0101C364.094 125.219 356.298 148.26 353.988 153.987C368.715 169.841 377.666 190.057 377.666 214.79C377.666 301.843 323.669 321.003 272.272 326.575C280.357 333.378 287.865 347.272 287.865 368.507C287.865 398.832 287.576 423.199 287.576 430.559C287.576 436.497 291.618 443.588 303.457 441.321C395.876 411.573 462 326.595 462 226.608C462 101.466 358.57 0 231 0Z" fill="url(#paint0_linear)"/>
<defs>
<linearGradient id="paint0_linear" x1="231" y1="0" x2="231" y2="442" gradientUnits="userSpaceOnUse">
<stop stop-color="#30363D"/>
<stop offset="0.916667" stop-color="#1A1B1F" stop-opacity="0.25"/>
<stop offset="1" stop-color="#121214" stop-opacity="0"/>
</linearGradient>
</defs>
</svg>
